<?xml version="1.0" ?><svg id="Layer_1" style="enable-background:new 0 0 595.3 841.9;" version="1.1" viewBox="0 0 595.3 841.9" xml:space="preserve" xmlns="http://www.w3.org/2000/svg" xmlns:xlink="http://www.w3.org/1999/xlink"><style type="text/css">
	.st0{fill:#3765AF;}
	.st1{fill:#FFFFFF;}
</style><path class="st0" d="M532.9,392.9c-10.9,69.1-32,89.3-69.4,135.7c-37.4,39.3-91.3,105-167.6,101.3c-69.1-10.9-89.3-32-135.7-69.4  c-39.3-37.4-105-91.3-101.3-167.6c10.9-69.1,32-89.3,69.4-135.7c37.4-39.3,91.3-105,167.6-101.3c69.1,10.9,89.3,32,135.7,69.4  C470.9,262.8,536.6,316.6,532.9,392.9z"/><path class="st1" d="M447.7,463.8c-3.6,0-4.8-1.5-4.7-5c0.1-3.9,0-7.8,0-11.6c0-45,0-90,0-135c0-2.8,0-5.4-2.8-7.2  c-6.7-4.2-13.2-8.6-19.8-13c-1.4-0.9-1.9-0.7-2.4,0.9c-1.7,6.3,0.2,10.3,6.2,13.2c4.2,2.1,8.4,4.4,12.5,6.7c2.4,1.3,2.6,3.6,1.7,5.6  c-1.1,2.4-2.9,0.6-4.4-0.1c-4-1.9-8-3.9-12-5.9c-1.2-0.6-2.6-2-3.8-0.4c-1.1,1.5-0.6,3.4,0.4,4.8c1,1.4,2.7,2.1,4.3,2.8  c4.6,2.1,9.1,4.3,13.6,6.4c2.7,1.3,2.8,3.8,1.7,5.9c-1.1,2.3-3,0.6-4.5-0.1c-3.9-1.8-7.8-3.6-11.8-5.4c-1.2-0.5-2.5-1-3.6,0.3  c-0.9,1.1-0.7,2.4-0.3,3.7c0.5,1.6,1.8,2.1,3.2,2.6c5,2.1,10,4.3,15.1,6.4c2.6,1.1,2.8,3.3,2,5.4c-0.9,2.4-2.9,1.3-4.4,0.7  c-4-1.5-8-3.2-12-4.8c-1.3-0.5-2.8-1.7-3.7,0.1c-0.8,1.6-0.8,3.5,0.7,4.8c1.3,1.1,2.9,1.8,4.5,2.4c4.1,1.6,8.3,3.1,12.5,4.7  c2.8,1,3.1,3.3,2.5,5.6c-0.7,2.6-2.9,1.3-4.3,0.8c-4.2-1.3-8.4-2.9-12.6-4.3c-3.2-1-3.8,0.8-3.5,3.4c0.3,2,1.7,2.8,3.5,3.4  c4.7,1.4,9.2,3.1,14,4.4c3.2,0.9,3.7,3,3.1,5.6c-0.7,3-2.9,1.5-4.5,1.1c-4-1.1-8-2.4-12-3.6c-1.5-0.4-3.4-1.1-4,1  c-0.6,1.8-0.5,3.9,1.6,4.8c2.1,0.9,4.3,1.6,6.5,2.2c3.2,0.9,6.4,1.7,9.6,2.5c2.9,0.8,3.4,2.9,2.9,5.4c-0.6,3.1-2.7,1.6-4.4,1.3  c-4.2-0.9-8.4-1.9-12.6-2.8c-1.3-0.3-2.7-0.2-3.3,1.3c-0.7,1.6-0.3,3.1,1,4.3c0.9,0.9,2,1,3.2,1.2c4.4,0.9,8.7,1.8,13.1,2.8  c2.9,0.6,3.5,2.7,3.2,5.2c-0.4,2.9-2.4,2.1-4.3,1.7c-3.8-0.8-7.6-1.5-11.4-2.2c-2.1-0.4-4.4-1.4-5.1,2c-0.6,3.1,1.1,4.1,3.8,4.5  c4.7,0.8,9.3,1.6,14,2.6c2.9,0.6,3.5,2.8,2.9,5.3c-0.6,2.8-2.7,1.8-4.5,1.6c-4.1-0.6-8.2-1.2-12.4-1.7c-1.7-0.2-3.3,0-3.6,2  c-0.4,2.1,0.3,3.7,2.4,4.4c0.9,0.3,2,0.4,3,0.5c4,0.5,8,1,12,1.5c3.1,0.4,3.6,2.5,3.3,5c-0.4,2.8-2.4,2.3-4.3,2  c-4.1-0.5-8.3-0.9-12.4-1.4c-2.3-0.3-3.9,0.3-4.2,3c-0.3,2.8,1.2,3.4,3.6,3.6c4.7,0.4,9.4,0.9,14.1,1.4c2.5,0.3,3.3,1.8,3.2,4.2  c-0.1,2.6-1.8,3-3.9,2.8c-4.2-0.2-8.3-0.5-12.5-0.8c-2.4-0.1-4.5,0.3-4.6,3.2c-0.1,2.9,1.9,3.5,4.3,3.6c4.2,0.1,8.3,0.2,12.5,0.2  c2.5,0,4.1,0.8,4.1,3.7s-1.6,3.7-4.1,3.7c-4.3,0-8.6,0-12.9,0c-2.8,0-4.4,0.8-4,4.1c0.2,1.6,0.7,4.1-1.8,4c-2.2,0-1.3-2.4-1.6-3.8  c-0.1-0.4,0-0.9,0-1.3c0-53.5,0-106.9,0-160.4c0-2.2,1.2-5.2-1.1-6.4c-1.8-1-3.1,1.9-4.9,2.8c-9.3,4.8-18.4,10-27.8,14.8  c-4.2,2.1-6,4.7-5.9,9.7c0.3,28.9,0.1,57.8,0.1,86.7c0,18,0,35.9,0,53.9c0,2.2,0.2,4.6-3.1,4.6c-3.2,0-3.9-2.3-3.6-4.7  c0.8-6.2,0-12.3,0.2-18.5c0.3-11.2,0.1-22.4,0.1-33.5c0-11.7,0-23.5,0-35.2c0-8.7-0.3-17.5-0.3-26.2c0-2.2-1.1-3.5-3.1-4.1  c-6.1-2.1-12.2-4.3-18.3-6.4c-1-0.3-1.9-0.7-2.7,0.4c-2.2,3,0.1,10.8,3.7,11.9c4.5,1.4,9.1,2.6,13.7,3.9c2.8,0.8,3.5,2.8,3,5.4  c-0.6,2.9-2.7,1.9-4.5,1.5c-4-1-8.1-2-12.1-3c-1.4-0.3-3.2-1.6-3.9,0.8c-0.6,2.2-0.5,4.4,2.1,5.4c1.1,0.4,2.2,0.6,3.3,0.8  c3.9,0.9,7.8,1.8,11.7,2.7c2.9,0.7,4,2.8,3.3,5.6c-0.8,3.1-3.1,1.7-4.9,1.3c-3.9-0.9-7.8-1.8-11.8-2.7c-1.3-0.3-2.7-0.7-3.5,0.6  s-0.7,2.8-0.2,4.2c0.5,1.5,1.9,1.6,3.1,1.9c4.8,1.1,9.5,2.1,14.3,3.2c2.8,0.7,3.7,2.7,3,5.3c-0.7,2.5-2.8,1.9-4.7,1.5  c-4.1-0.7-8.2-1.5-12.3-2.2c-1.4-0.3-3-0.7-3.5,1.3c-0.5,1.9-0.4,3.9,1.6,4.9c1.3,0.6,2.8,0.7,4.2,1c4,0.7,7.9,1.4,11.9,2.1  c2.5,0.4,3.3,2,3,4.4c-0.3,2.6-2,2.9-4.1,2.5c-4.1-0.6-8.2-1.4-12.3-2c-2.1-0.3-4.2-0.5-4.4,2.5c-0.2,2.7,1,3.9,3.6,4.2  c4.6,0.5,9.1,1.3,13.7,1.8c2.4,0.3,3.6,1.4,3.5,3.9c-0.1,2.5-1.7,3.2-3.8,3c-4.2-0.3-8.3-0.6-12.4-1c-2.3-0.2-4.4-0.7-4.6,2.7  c-0.2,2.9,1.3,4.2,4.1,4.3c4.2,0.2,8.3,0.7,12.5,0.9c3,0.1,4.6,1.4,4.3,4.6c-0.3,3.1-2.4,3-4.8,2.7c-4-0.4-8-0.7-12-1  c-2.2-0.2-4,0.3-4.1,3.1c-0.1,2.7,1.3,3.5,3.7,3.6c4,0.2,8,0.6,12,0.7c2.8,0.1,5.3,0.5,5.2,4.2c-0.1,3.9-3,3.6-5.6,3.5  c-3.6-0.2-7.2-0.5-10.7-0.7c-2.3-0.1-4.5,0-4.5,3.1c0,3.2,2,3.7,4.6,3.7c4.2,0,8.3,0.1,12.5,0.2c2.3,0.1,3.8,1.1,3.8,3.7  c0,2.6-1.5,3.6-3.8,3.6c-3.4,0.1-6.9,0.2-10.3,0c-4.3-0.3-7.5,0.3-6.8,5.8c0.1,1-0.1,2.2-1.4,2.3c-1.6,0.1-1.7-1.2-1.9-2.4  c-0.1-0.9-0.1-1.7-0.1-2.6c0-25.4,0-50.9,0-76.3c0-14.2,0-28.5-0.1-42.7c0-4.4-1.2-5.1-5.2-3.6c-2.5,1-5,2.2-7.5,3.2  c-7.3,2.6-14.1,6.5-21.8,8c0,0-0.1,0-0.1,0c-0.9-4.7-0.6-3.1-1-4.8c-7.9-29.3-34.2-52-67-51.8c-47.8,0.3-76.3,42.4-69.4,81.1  c0.6,3.3-0.7,4.4-3.2,5.9c-21.2,12.2-32,36-26.1,60.4c6.9,28.3,30.7,41.3,48.2,41.6c34.3,0.7,68.7,0.2,103,0.2c0-0.1,0-0.3,0-0.4  c0.1,0.1,0.1,0.1,0.2,0.2c1.9,0,3.7,0.1,5.6,0.1c49.9,0,99.7,0,149.6,0c9.9,0.3,8.4,1.6,8.6-8.3C454.4,464,454.3,463.8,447.7,463.8z   M298.8,369.3c0,27.5,0,55.1,0,82.6c0,1.4,0,2.9-0.2,4.3c-0.4,2.7-1.8,4.3-4.5,5.1c-4.6,1.4-5.2,1.6-5.4,5.5c-5.3,0-3.4,0-5.8,0  c-30.5-0.1-60.9,0-91.4-0.1c-25.6-0.1-45.5-24.4-40.7-49.5c3.1-16,12.7-26.6,27.6-32.7c5.1-2.1,5.3-2.8,4.1-8.1  c-1.7-7.2-3.1-14.4-2.3-22.1c3.2-30.9,30-54.1,62.2-51.5c28.2,2.3,51.5,26.7,51.9,55c0,1.9-0.3,3.9,0.4,5.6c0.7,1.8,1.8,3.6,3.7,1.7  c0,0,0,0,0,0C299.1,366.5,298.8,367.9,298.8,369.3z M312.8,352.4c4.8-1.8,9.6-3.6,14.4-5.5c1.3-0.5,2.7-0.6,3.3,0.9  c0.8,2.3,0.7,4.7-1.7,6c-2.1,1.1-4.5,1.8-6.8,2.6c-2.7,1-5.4,1.8-8.1,2.8c-2.5,0.9-4,0.4-3.7-2.6C310,354.6,310.7,353.1,312.8,352.4  z M310.1,367.2c5.8-2.6,11.8-4.4,18-5.8c1.5-0.3,2.4,0.8,2.6,2.2c0.2,1.8,0.3,3.8-1.7,4.5c-5.7,1.9-11.5,3.6-16.1,5  c-2.7,0.2-3.9-0.1-4.2-1.7C308.4,369.7,308.6,367.8,310.1,367.2z M310.8,380.2c5.6-1.8,11.3-3.3,16.9-4.8c2.6-0.7,3.1,1.3,3.2,4  c0.1,1.9-1.2,3.4-3.6,3.9c-4.9,1.1-9.8,2.2-14.7,3.3c-1.6,0.3-3.3,0.7-3.9-1.5C308.2,383.1,308.5,380.9,310.8,380.2z M311,393.5  c5.6-1.4,11.2-2.5,16.8-3.5c2.7-0.5,2.9,1.7,2.9,3.6c0.2,2.3-0.9,3.5-3.1,3.9c-4.9,0.9-9.8,1.9-14.8,2.9c-1.7,0.3-3.6,0.8-4.2-1.6  C308.1,396.5,308.5,394.1,311,393.5z M328.2,411.6c-5.6,1.1-11.3,1.9-17,2.6c-1.8,0.2-2.5-1.1-2.7-2.7c-0.2-2.3,0.7-4.1,3-4.6  c5.2-1,10.4-1.9,15.6-2.8c1.7-0.1,3.3,0.1,3.6,2.2C331.1,408.7,330.9,411.1,328.2,411.6z M327.4,455.1c-5.2,0-10.3,0-15.5,0  c-2.2,0-3.4-1.2-3.5-3.5c-0.1-2.4,0.8-4,3.3-4.1c2.7-0.1,5.5,0,8.2,0v-0.1c2.3-0.1,4.6-0.1,6.9-0.3c2.8-0.3,4,1.1,4.1,3.7  C331.1,453.3,330.3,455.1,327.4,455.1z M312.1,441.4c-1.9,0-3.4-0.5-3.5-2.8c-0.2-2.1,0.3-3.9,2.6-4.3c5.6-1,11.3-1.8,17-1.5  c2.2,0.1,2.7,1.8,2.7,3.7c0,2.1-0.7,3.7-3,4c-3.5,0.4-7.1,0.7-10.7,1v-0.1C315.5,441.4,313.8,441.4,312.1,441.4z M328.5,426.2  c-5.7,0.9-11.4,1.4-17.1,1.9c-1.9,0.2-2.8-1.1-2.9-2.9c-0.2-2.5,0.7-4.4,3.3-4.7c4-0.6,8-0.9,12-1.4c1.1-0.1,2.3-0.2,2.9-0.3  c2.5-0.5,4,0,4.2,2.3C331,423.1,331.4,425.7,328.5,426.2z M386.9,421.3c4.3-0.5,8.5-1.3,12.8-1.9c2.8,0.1,6.2-1.3,6,3.7  c-0.1,2-0.8,3.3-2.9,3.6c-5,0.6-10,1.2-14.9,1.7c-2,0.2-4.1,0.2-4.4-2.7C383.2,423,384.2,421.6,386.9,421.3z M383.3,412.6  c0-2.2,0.1-4.2,2.7-4.7c5.5-1.1,11-2.1,16.4-3.1c2.2-0.4,2.8,0.9,2.9,2.7c0.2,2.4,0.1,5-3,5.2c-5.2,0.3-10.1,1.8-15.7,2.3  C385.1,415.3,383.5,415.1,383.3,412.6z M402.9,397.9c-5.4,1.2-10.9,2.4-16.4,3.6c-1.4,0.3-2.7-0.1-2.9-1.7c-0.3-1.8-0.7-4.1,1.5-4.9  c5.8-2.2,11.9-3.2,17.9-4.2c2.3-0.4,2.7,1.7,2.7,4.1C405.8,396.1,404.8,397.5,402.9,397.9z M383.4,384.9c-0.1-2,0.7-3.4,2.7-3.9  c5.5-1.6,11-3.1,16.5-4.6c1.6-0.5,2.5,0.3,2.7,1.9c0,1.9,0.6,4.5-2.1,5.3c-5.6,1.6-11.3,3-17,4.4  C383.6,388.6,383.5,386.7,383.4,384.9z M402.9,369.2c-5.6,1.8-11.2,3.5-16.8,5.2c-1.4,0.4-2.3-0.2-2.5-1.6c-0.3-2.2-0.5-4.5,2.1-5.5  c2.9-1.2,6-2.1,8.9-3.1c2.5-0.8,4.9-1.6,7.4-2.4c2.7-0.8,3.8,0.4,3.8,3.1C405.8,367.1,404.9,368.6,402.9,369.2z M383.5,358.3  c-0.1-3.1,1.5-4.3,3.7-5.1c4.6-1.7,9.1-3.4,13.7-5c1.4-0.5,3.2-2.6,4.2,0.2c0.8,2.2,1.1,5.1-1.4,6.1c-5.8,2.4-11.8,4.4-17.8,6.2  C383.5,361.5,383.6,359.3,383.5,358.3z M403.6,325.9c-5.6,2.8-11.4,5.2-17.2,7.7c-2.7,1.2-2.8-0.7-2.9-1.5c-0.2-3.3,0.7-4.8,2.9-5.7  c4.8-2.2,9.5-4.6,14.4-6.7c1.3-0.6,3.1-2.8,4.3-0.3C406.2,321.7,406.2,324.5,403.6,325.9z M385,313.8c5.8-3.4,11.7-6.6,17.8-9.5  c2.5-1.2,2.7,1.1,2.9,2.8c0.3,2.6-1.2,4-3.3,5c-4.7,2.4-9.4,4.9-14.2,7.1c-1.3,0.6-3.2,2.4-4.4,0C382.9,317.3,383.1,314.9,385,313.8  z M385.9,340.3c3.8-1.7,7.6-3.2,11.4-4.8c1.4-0.6,2.9-1.2,4.3-1.9c3-1.3,3.9,0.2,4,3.4c0.3,2.3-1.9,3.3-4,4.2  c-4.5,1.8-9,3.7-13.6,5.3c-1.3,0.5-3.3,2.6-4.3,0C382.8,344.2,383.1,341.6,385.9,340.3z M402.6,455.2c-2.7,0.1-5.4,0-8.1,0  c-2.6,0-5.1,0-7.7,0c-2.3,0-3.4-1.1-3.4-3.4c0-2.2,0.9-3.5,3.2-3.5c5.3,0,10.6-0.1,15.8-0.1c2.1,0,3.2,1.1,3.2,3.2  C405.7,453.4,405,455.1,402.6,455.2z M401.8,441.5c-3.9,0.1-7.7,0.4-12,0.6c-2.3-0.6-6.6,1.8-6.8-3.5c-0.2-5,3.9-3.8,6.8-4.2  c3.8-0.4,7.7-0.6,11.5-1.2c3-0.5,4.3,0.5,4.5,3.5C405.9,439.6,405.1,441.4,401.8,441.5z"/></svg>