<?xml version="1.0" ?><!DOCTYPE svg  PUBLIC '-//W3C//DTD SVG 1.1//EN'  'http://www.w3.org/Graphics/SVG/1.1/DTD/svg11.dtd'><svg enable-background="new 0 0 512 512" height="512px" id="Design_Graphic" version="1.1" viewBox="0 0 512 512" width="512px" xml:space="preserve" xmlns="http://www.w3.org/2000/svg" xmlns:xlink="http://www.w3.org/1999/xlink"><path d="M256,0c141.355,0,256,114.216,256,255.043S397.355,510.086,256,510.086S0,395.87,0,255.043  S114.645,0,256,0z" fill="#AFBD77" id="Background"/><g id="Design_Graphic_1_"><path d="M352.938,366.566c0,0.6,0.301,1.196,0.301,1.796c0,17.341-43.815,31.693-98.138,31.693   c-54.021,0-97.837-14.353-97.837-31.693c0-0.6,0-1.196,0.297-1.796c-0.297-0.597-0.297-1.196-0.297-1.492   c0-17.642,43.816-31.993,97.837-31.993c54.322,0,98.138,14.352,98.138,31.993C353.238,365.37,352.938,365.97,352.938,366.566z" fill="#757575"/><path d="M352.938,366.566c0,0.6,0.301,1.196,0.301,1.796c0,17.341-43.815,31.693-98.138,31.693   c-2.104,0-4.502,0-6.904,0v-66.675c2.401-0.3,4.799-0.3,6.904-0.3c54.322,0,98.138,14.352,98.138,31.993   C353.238,365.37,352.938,365.97,352.938,366.566z" fill="#696969"/><path d="M248.197,333.381c2.401-0.3,4.799-0.3,6.904-0.3c52.519,0,95.138,13.456,97.837,30.196   c-2.699,16.744-45.318,29.9-97.837,29.9c-2.104,0-4.502,0-6.904,0V333.381z" fill="#757575"/><path d="M255.101,329.792c54.033,0,97.837,14.189,97.837,31.692c0,17.504-43.804,31.693-97.837,31.693   c-54.038,0-97.837-14.189-97.837-31.693C157.264,343.981,201.063,329.792,255.101,329.792z" fill="#8D8D8D"/><path d="M255.101,329.492c54.322,0,98.138,14.352,98.138,31.992c0,17.642-43.815,31.693-98.138,31.693   c-2.104,0-4.502,0-6.904,0v-63.386C250.598,329.792,252.996,329.492,255.101,329.492z" fill="#7F7F7F"/><polygon fill="#CCCCCC" points="219.686,268.795 290.812,268.795 290.812,353.41 219.686,353.41  "/><polygon fill="#B8B8B8" points="290.812,314.243 290.812,353.41 248.197,353.41 248.197,314.243  "/><polygon fill="#B8B8B8" points="225.088,274.177 286.912,274.177 286.912,348.029 225.088,348.029  "/><polygon fill="#A6A6A6" points="286.912,314.243 286.912,348.029 248.197,348.029 248.197,314.243  "/><path d="M77.732,70.562h356.536c3.302,0,6.306,2.691,6.306,6.28v231.125c0,3.289-3.004,6.277-6.306,6.277H77.732   c-3.305,0-6.301-2.988-6.301-6.277V76.841C71.431,73.252,74.427,70.562,77.732,70.562z" fill="#A9ABAE"/><path d="M91.837,79.83h334.33c2.699,0,4.8,2.393,4.8,5.083V294.21c0,2.989-2.101,5.086-4.8,5.086H85.833   c-2.703,0-4.803-2.097-4.803-5.086V90.893C81.029,84.914,85.833,79.83,91.837,79.83z" fill="#669999"/><path d="M256,300.788c2.816,0,5.101,2.274,5.101,5.085c0,2.807-2.284,5.082-5.101,5.082   c-2.817,0-5.104-2.275-5.104-5.082C250.896,303.063,253.183,300.788,256,300.788z" fill="#CCCCCC"/><path d="M256,302.284c1.99,0,3.603,1.606,3.603,3.589c0,1.979-1.612,3.585-3.603,3.585   c-1.986,0-3.603-1.605-3.603-3.585C252.397,303.891,254.014,302.284,256,302.284z" fill="#B3B3B3"/><path d="M102.042,86.708h313.619c2.703,0,4.804,2.093,4.804,4.784v196.441c0,2.688-2.101,4.785-4.804,4.785H96.335   c-2.699,0-4.799-2.097-4.799-4.785V97.173C91.536,91.193,96.335,86.708,102.042,86.708z" fill="#336666"/><rect fill="#E6E6E6" height="192.256" width="262.904" x="123.046" y="93.584"/><rect fill="#66FFCC" height="188.837" width="17.96" x="96.937" y="93.584"/><rect fill="#E6E6E6" height="189.309" width="17.959" x="392.553" y="92.986"/><path d="M394.954,95.977h5.703v5.682h-5.703V95.977z M403.059,252.052h5.703v5.679h-5.703V252.052z    M394.954,252.052h5.703v5.679h-5.703V252.052z M403.059,244.578h5.703v5.68h-5.703V244.578z M394.954,244.578h5.703v5.68h-5.703   V244.578z M403.059,237.102h5.703v5.682h-5.703V237.102z M394.954,237.102h5.703v5.682h-5.703V237.102z M403.059,229.628h5.703   v5.682h-5.703V229.628z M394.954,229.628h5.703v5.682h-5.703V229.628z M403.059,222.152h5.703v5.682h-5.703V222.152z    M394.954,222.152h5.703v5.682h-5.703V222.152z M403.059,214.678h5.703v5.98h-5.703V214.678z M394.954,214.678h5.703v5.98h-5.703   V214.678z M403.059,207.502h5.703v5.682h-5.703V207.502z M394.954,207.502h5.703v5.682h-5.703V207.502z M403.059,200.028h5.703   v5.68h-5.703V200.028z M394.954,200.028h5.703v5.68h-5.703V200.028z M403.059,192.552h5.703v5.682h-5.703V192.552z    M394.954,192.552h5.703v5.682h-5.703V192.552z M403.059,185.078h5.703v5.682h-5.703V185.078z M394.954,185.078h5.703v5.682h-5.703   V185.078z M403.059,177.602h5.703v5.682h-5.703V177.602z M394.954,177.602h5.703v5.682h-5.703V177.602z M403.059,170.127h5.703   v5.979h-5.703V170.127z M394.954,170.127h5.703v5.979h-5.703V170.127z M403.059,162.951h5.703v5.682h-5.703V162.951z    M394.954,162.951h5.703v5.682h-5.703V162.951z M403.059,155.478h5.703v5.679h-5.703V155.478z M394.954,155.478h5.703v5.679h-5.703   V155.478z M403.059,148.001h5.703v5.682h-5.703V148.001z M394.954,148.001h5.703v5.682h-5.703V148.001z M403.059,140.527h5.703   v5.682h-5.703V140.527z M394.954,140.527h5.703v5.682h-5.703V140.527z M403.059,133.053h5.703v5.679h-5.703V133.053z    M394.954,133.053h5.703v5.679h-5.703V133.053z M403.059,125.577h5.703v5.979h-5.703V125.577z M394.954,125.577h5.703v5.979h-5.703   V125.577z M403.059,118.401h5.703v5.682h-5.703V118.401z M394.954,118.401h5.703v5.682h-5.703V118.401z M403.059,110.927h5.703   v5.682h-5.703V110.927z M394.954,110.927h5.703v5.682h-5.703V110.927z M403.059,103.451h5.703v5.682h-5.703V103.451z    M394.954,103.451h5.703v5.682h-5.703V103.451z M403.059,95.977h5.703v5.682h-5.703V95.977z" fill="#33CC99"/><polygon fill="#33CC99" points="254.799,139.331 276.707,151.888 298.318,164.446 298.318,189.563 298.318,214.678    276.707,227.235 254.799,239.793 233.188,227.235 211.28,214.678 211.28,189.563 211.28,164.446 233.188,151.888  "/><rect fill="#CC3300" height="5.83" width="5.821" x="207.381" y="211.687"/><polygon fill="#CC3300" points="210.083,213.184 296.218,213.184 296.218,215.874 210.083,215.874  "/><rect fill="#CC3300" height="5.83" width="5.82" x="294.716" y="211.687"/><polygon fill="#CCCCCC" points="211.582,212.585 217.285,217.668 214.586,232.021 205.883,232.021 202.879,217.668    208.879,212.585 208.879,225.143 211.582,225.143  "/><path d="M205.582,232.021h9.383c0.997,0,1.803,1.606,1.803,3.587l0,0c0,1.983-0.806,3.589-1.803,3.589h-9.383   c-0.993,0-1.799-1.606-1.799-3.589l0,0C203.782,233.626,204.588,232.021,205.582,232.021z" fill="#B3B3B3"/><rect fill="#4D4D4D" height="13.427" width="2.532" x="208.879" y="211.687"/><path d="M210.083,222.452c1.49,0,2.699,1.204,2.699,2.69s-1.209,2.691-2.699,2.691   c-1.494,0-2.703-1.205-2.703-2.691S208.59,222.452,210.083,222.452z" fill="#4D4D4D"/><path d="M254.502,116.907L254.502,116.907h-0.603h-0.301h-0.301c-0.899,0-1.498-0.598-1.498-1.196   c0-0.896,0.598-1.495,1.197-1.495h0.602h0.301h0.603l0,0h0.599h0.297H256h0.301h0.598h0.302c0.899,0,1.2,0.598,1.2,1.495   c0,0.598-0.603,1.196-1.2,1.196h-0.302h-0.598H256h-0.603h-0.598H254.502z M244.896,114.814c0.603,0,1.498,0.598,1.498,1.196   c0,0.896-0.297,1.495-1.197,1.495l0,0h-0.301h-0.603l-0.297,0.298h-0.598h-0.301h-0.603c-0.598,0.3-1.197-0.298-1.498-0.896   c0-0.896,0.599-1.495,1.197-1.795h0.301h0.603h0.301h0.598l0.297-0.298H244.896L244.896,114.814z M234.092,116.907   c0.9,0,1.498,0.298,1.799,1.196c0,0.598-0.301,1.196-0.899,1.494h-0.297l-0.603,0.3h-0.301l-0.603,0.298h-0.297l-0.301,0.298   h-0.297c-0.603,0-1.502-0.298-1.502-0.896c-0.301-0.896,0-1.494,0.598-1.794h0.301l0.301-0.298h0.598h0.301l0.599-0.3h0.301   L234.092,116.907z M223.887,120.793c0.598-0.3,1.502,0,1.803,0.598c0.297,0.598,0,1.495-0.904,1.795l-0.301,0.298h-0.297   l-0.301,0.298h-0.599l-0.301,0.3l-0.301,0.298h-0.301c-0.598,0.3-1.196,0-1.799-0.599c-0.301-0.596,0-1.494,0.603-1.792h0.301   l0.297-0.3l0.297-0.298h0.602l0.301-0.3l0.603-0.298H223.887z M214.285,125.877c0.598-0.3,1.197,0,1.799,0.598   c0.301,0.596,0.301,1.495-0.602,1.792h-0.297l-0.301,0.3l-0.297,0.298l-0.301,0.3l-0.301,0.298l-0.603,0.3l0,0   c-0.599,0.298-1.498,0.298-1.799-0.3c-0.598-0.598-0.301-1.494,0.301-2.092l0,0l0.603-0.3l0.297-0.298h0.301l0.297-0.298l0.603-0.3   L214.285,125.877z M205.28,132.455c0.603-0.3,1.498-0.3,2.101,0.298c0.301,0.3,0.301,1.196-0.301,1.794l0,0l-0.599,0.298   l-0.301,0.3l-0.297,0.298l-0.301,0.3l-0.301,0.298v0.3c-0.603,0.596-1.498,0.298-2.101,0c-0.602-0.598-0.301-1.496,0-2.094h0.301   l0.301-0.298l0.297-0.3l0.301-0.298l0.297-0.298l0.603-0.3V132.455z M197.477,140.227c0.598-0.596,1.502-0.596,2.101,0   c0.598,0.3,0.598,1.196,0,1.794l0,0l-0.297,0.3l-0.301,0.298l-0.301,0.598l-0.301,0.298l-0.301,0.3l-0.297,0.298   c-0.301,0.598-1.201,0.598-1.803,0c-0.599-0.298-0.599-1.194-0.301-1.792l0.301-0.3l0.301-0.298l0.301-0.3l0.301-0.298l0.301-0.598   L197.477,140.227L197.477,140.227z M190.875,148.899c0.598-0.598,1.201-0.598,2.101-0.3c0.598,0.3,0.598,1.196,0.301,1.794   l-0.301,0.598l-0.297,0.298v0.3l-0.301,0.298l-0.301,0.598l-0.301,0.3l0,0c-0.301,0.598-1.197,0.896-1.799,0.298   c-0.603-0.298-0.904-1.196-0.301-1.794l0,0v-0.298l0.301-0.3l0.301-0.596l0.301-0.3l0.297-0.298V148.899z M185.774,158.766   c0.301-0.598,1.197-1.196,1.799-0.898c0.603,0.598,0.899,1.196,0.603,1.794v0.598l-0.301,0.3l-0.301,0.298v0.598l-0.301,0.298   v0.598l0,0c-0.301,0.598-1.197,0.898-1.799,0.598c-0.603-0.298-1.201-0.896-0.903-1.794l0,0l0.301-0.298l0.301-0.598v-0.298   l0.301-0.598v-0.3L185.774,158.766z M181.87,168.931c0.301-0.598,1.201-1.196,1.804-0.896c0.598,0.298,1.196,0.896,0.896,1.794l0,0   v0.298l-0.297,0.598v0.298l-0.297,0.598v0.3v0.298c-0.301,0.898-0.903,1.196-1.803,1.196c-0.598-0.298-0.899-0.896-0.899-1.795   v-0.298l0.301-0.598v-0.298l0.297-0.599v-0.3V168.931L181.87,168.931z M179.77,179.696c0-0.598,0.899-1.197,1.502-1.197   c0.899,0.298,1.197,0.896,1.197,1.495v0.3v0.596l-0.297,0.598v0.3v0.598v0.298l0,0c0,0.898-0.598,1.494-1.502,1.196   c-0.598,0-1.197-0.598-1.197-1.495l0,0v-0.3v-0.598l0.297-0.298v-0.598v-0.598V179.696z M179.171,190.759   c0-0.898,0.599-1.497,1.197-1.497c0.904,0,1.502,0.598,1.502,1.497v0.298v0.598v0.298v0.598v0.3v0.598   c0,0.598-0.598,1.197-1.201,1.197c-0.899,0.298-1.498-0.3-1.498-1.197v-0.3v-0.598v-0.298v-0.598v-0.598V190.759z M180.071,201.82   c0-0.896,0.297-1.495,1.201-1.792c0.598,0,1.197,0.598,1.498,1.196v0.596v0.3l0.301,0.599v0.298v0.598v0.3   c0.301,0.598-0.301,1.494-0.9,1.494c-0.899,0.298-1.502-0.3-1.502-0.896l-0.301-0.598v-0.3v-0.598v-0.298l-0.297-0.599V201.82z    M182.469,212.285c0-0.598,0.301-1.495,0.904-1.495c0.899-0.298,1.498,0,1.799,0.896l0,0l0.301,0.598v0.3l0.301,0.598v0.298   l0.301,0.3v0.298c0.297,0.598-0.301,1.495-0.904,1.794c-0.602,0.298-1.498-0.3-1.799-0.898v-0.298v-0.298l-0.301-0.598v-0.3   l-0.301-0.298v-0.598L182.469,212.285z M186.674,222.452c-0.301-0.598,0-1.196,0.598-1.794c0.603-0.298,1.502,0,1.799,0.896l0,0   l0.301,0.598l0.301,0.3v0.298l0.301,0.598l0.301,0.3l0,0c0.301,0.896,0,1.494-0.602,2.092c-0.603,0.298-1.498,0-1.799-0.598v-0.298   l-0.301-0.3l-0.301-0.598v-0.298l-0.301-0.3l-0.297-0.598V222.452z M192.075,232.021c-0.301-0.598-0.301-1.496,0.301-1.794   c0.599-0.3,1.498-0.3,2.101,0.298v0.3l0.301,0.298l0.297,0.3l0.301,0.298v0.598l0.297,0.298h0.301   c0.301,0.598,0.301,1.497-0.301,2.095c-0.599,0.298-1.498,0.298-2.101-0.3v-0.298l-0.297-0.3l-0.301-0.298l-0.297-0.598l-0.301-0.3   v-0.298L192.075,232.021z M198.979,240.691c-0.603-0.598-0.603-1.496,0-1.794c0.599-0.598,1.498-0.598,2.101,0l0,0l0.301,0.298   l0.297,0.3l0.301,0.298l0.297,0.3l0.301,0.598h0.301c0.301,0.598,0.301,1.495,0,2.093c-0.603,0.598-1.498,0.598-2.101,0l-0.301-0.3   l-0.301-0.298l-0.297-0.298l-0.301-0.3l-0.297-0.598L198.979,240.691L198.979,240.691z M207.08,248.165   c-0.599-0.298-0.9-1.196-0.301-1.794c0.301-0.598,1.205-0.598,1.803-0.298l0.297,0.298l0.301,0.3l0.301,0.298l0.603,0.3   l0.301,0.298l0.297,0.3l0,0c0.598,0.298,0.598,1.194,0.301,1.792c-0.301,0.598-1.201,0.598-1.803,0.3l0,0l-0.599-0.3l-0.301-0.298   l-0.297-0.3l-0.301-0.298l-0.301-0.298L207.08,248.165z M215.782,254.445c-0.598-0.3-0.598-1.196-0.301-1.794   c0.301-0.598,1.205-0.896,1.803-0.3h0.301l0.297,0.3l0.301,0.298h0.603l0.301,0.3l0.297,0.298h0.301   c0.599,0.3,0.9,1.196,0.297,1.794c-0.297,0.598-0.896,0.898-1.799,0.598l0,0l-0.301-0.3l-0.598-0.298l-0.297-0.298h-0.301   l-0.603-0.3L215.782,254.445z M225.69,259.528c-0.603-0.3-0.904-1.196-0.603-1.797c0.301-0.596,0.899-0.896,1.799-0.596l0,0h0.603   l0.301,0.3l0.599,0.296h0.301l0.297,0.301h0.301c0.603,0.3,0.904,0.896,0.603,1.792c0,0.601-0.904,0.9-1.502,0.601h-0.297h-0.301   l-0.602-0.3l-0.301-0.301h-0.599l-0.301-0.296H225.69z M236.192,262.817c-0.899,0-1.201-0.896-0.899-1.496   c0-0.597,0.899-1.196,1.502-0.896h0.297h0.598l0.301,0.3h0.603h0.301l0.598,0.296c0.599,0,1.201,0.9,0.9,1.497   c0,0.596-0.9,1.196-1.498,0.896h-0.603h-0.301l-0.599-0.3h-0.301h-0.599L236.192,262.817z M246.996,264.91   c-0.899-0.301-1.201-0.896-1.201-1.497c0-0.896,0.599-1.492,1.502-1.196h0.301h0.301h0.599h0.297h0.603h0.301l0,0   c0.899,0.301,1.498,0.896,1.498,1.497c0,0.896-0.9,1.496-1.498,1.196l0,0h-0.603h-0.301h-0.598h-0.599h-0.301H246.996z    M257.799,265.21c-0.598,0-1.2-0.601-1.2-1.496c0-0.601,0.301-1.196,1.2-1.196h0.302l0.603-0.301H259h0.603h0.599h0.301   c0.599,0,1.201,0.601,1.502,1.196c0,0.896-0.603,1.497-1.502,1.497h-0.301h-0.302h-0.599h-0.598l-0.302,0.3H257.799z    M268.904,263.714c-0.9,0.3-1.498-0.301-1.8-0.896c0-0.896,0.599-1.496,1.201-1.797h0.301h0.599h0.301l0.599-0.296h0.302h0.598   c0.603-0.3,1.201,0.296,1.502,0.896c0.302,0.596-0.301,1.492-0.899,1.492l-0.603,0.3h-0.297h-0.603l-0.301,0.301h-0.599H268.904z    M279.41,261.021c-0.603,0.301-1.502-0.296-1.804-0.896c-0.297-0.597,0.302-1.493,0.904-1.793l0,0h0.598l0.302-0.3h0.599   l0.301-0.301h0.302l0.297-0.296c0.903-0.3,1.502,0,1.803,0.896c0.302,0.596,0,1.492-0.603,1.793h-0.297l-0.603,0.3h-0.301   l-0.599,0.3h-0.301L279.41,261.021L279.41,261.021z M289.313,256.536c-0.603,0.3-1.2,0-1.803-0.596   c-0.298-0.598,0-1.495,0.603-1.794h0.301l0.297-0.298h0.302l0.603-0.3l0.297-0.298l0.301-0.3h0.302   c0.599-0.298,1.498-0.298,1.799,0.598c0.302,0.598,0.302,1.196-0.598,1.794l0,0l-0.603,0.298l-0.302,0.3h-0.297l-0.603,0.3   l-0.297,0.296H289.313z M298.916,250.856c-0.598,0.3-1.502,0.3-2.101-0.298c-0.301-0.598-0.301-1.496,0.302-2.092l0,0l0.599-0.3   h0.301l0.302-0.298l0.297-0.3l0.301-0.298l0.302-0.3c0.599-0.298,1.498-0.298,2.101,0.3c0.301,0.598,0.301,1.494-0.302,1.792   l-0.301,0.3l-0.298,0.298l-0.602,0.3l-0.298,0.298l-0.301,0.3L298.916,250.856L298.916,250.856z M307.021,243.68   c-0.301,0.599-1.2,0.599-1.803,0c-0.599-0.598-0.599-1.494,0-1.792l0.301-0.3l0.302-0.298l0.301-0.3l0.297-0.298l0.302-0.598   l0.301-0.3l0,0c0.599-0.598,1.498-0.598,2.101,0c0.302,0.598,0.599,1.496,0,1.794v0.3l-0.301,0.298l-0.302,0.298l-0.297,0.3   l-0.603,0.298l-0.301,0.3L307.021,243.68z M314.523,235.31c-0.599,0.596-1.503,0.896-2.101,0.298   c-0.603-0.298-0.603-1.197-0.302-1.795l0.302-0.298l0.301-0.3l0.297-0.298l0.302-0.3l0.301-0.298v-0.598h0.302   c0.297-0.598,1.196-0.896,1.799-0.298c0.599,0.298,0.599,1.194,0.302,1.792v0.3l-0.302,0.298l-0.301,0.3l-0.302,0.298l-0.297,0.598   L314.523,235.31L314.523,235.31z M320.527,226.339c-0.603,0.599-1.201,0.896-1.804,0.298c-0.899-0.298-0.899-0.896-0.599-1.792l0,0   l0.298-0.598v-0.3l0.301-0.298l0.302-0.3l0.301-0.598l0,0c0.297-0.896,1.201-1.196,1.8-0.598c0.598,0.3,0.899,0.898,0.598,1.794   l0,0l-0.297,0.598l-0.301,0.3l-0.302,0.298v0.598l-0.297,0.298V226.339z M325.025,216.172c-0.298,0.898-0.899,1.196-1.8,0.898   c-0.598-0.3-0.899-0.898-0.598-1.794l0,0v-0.598l0.297-0.298v-0.598l0.301-0.3v-0.298l0.302-0.3c0-0.896,0.899-1.196,1.498-0.896   c0.903,0.298,1.2,0.896,0.903,1.794l0,0l-0.301,0.598v0.298l-0.302,0.598v0.298L325.025,216.172L325.025,216.172z M328.029,205.708   c0,0.898-0.899,1.196-1.502,1.196c-0.599-0.298-1.201-0.896-0.899-1.794v-0.298v-0.298v-0.598l0.301-0.3v-0.598v-0.298l0,0   c0.297-0.898,0.899-1.495,1.498-1.197c0.899,0,1.502,0.896,1.201,1.495l0,0v0.598v0.3l-0.302,0.598v0.298v0.598L328.029,205.708z    M329.527,194.944c0,0.598-0.599,1.196-1.201,1.196c-0.899,0-1.498-0.598-1.498-1.494l0.302-0.3v-0.298v-0.598v-0.598v-0.3v-0.598   l0,0c0-0.596,0.599-1.194,1.196-1.194c0.904,0,1.502,0.598,1.502,1.494l0,0v0.298v0.598v0.3v0.598l-0.301,0.599V194.944z    M329.527,183.881c0,0.598-0.297,1.494-1.201,1.494c-0.598,0-1.196-0.598-1.498-1.196v-0.596v-0.3v-0.598v-0.298v-0.598l-0.301-0.3   c0-0.896,0.603-1.495,1.201-1.495c0.899,0,1.502,0.3,1.502,1.196l0.297,0.298v0.598v0.3v0.598v0.298V183.881z M328.029,173.118   c0,0.598-0.301,1.194-1.201,1.495c-0.603,0.298-1.2-0.3-1.502-0.896v-0.3l-0.301-0.598v-0.298v-0.598l-0.298-0.3v-0.598l0,0   c-0.301-0.596,0.298-1.494,0.9-1.494c0.899-0.298,1.502,0,1.799,0.898l0,0v0.298v0.598l0.302,0.298v0.599l0.301,0.598V173.118z    M324.728,162.353c0.298,0.898,0,1.497-0.602,1.795c-0.9,0.298-1.498,0-1.8-0.598l0,0l-0.301-0.599v-0.298l-0.302-0.3v-0.598   l-0.297-0.298l-0.301-0.3c-0.302-0.896,0.301-1.494,0.899-1.792c0.603-0.3,1.502,0,1.799,0.598v0.298l0.302,0.598v0.298   l0.301,0.598l0.301,0.3V162.353L324.728,162.353z M320.226,152.486c0.302,0.598,0,1.497-0.603,1.794   c-0.598,0.598-1.498,0.298-1.799-0.298l0,0l-0.301-0.598l-0.302-0.3l-0.297-0.298v-0.3l-0.302-0.598l-0.301-0.298   c-0.297-0.598,0-1.495,0.603-1.794c0.599-0.298,1.498-0.298,1.799,0.3l0.302,0.596v0.3l0.301,0.298l0.297,0.598l0.302,0.3v0.298   H320.226z M313.925,143.516c0.599,0.598,0.297,1.196-0.302,1.794c-0.301,0.598-1.2,0.3-1.803-0.298l-0.297-0.3l-0.302-0.298v-0.3   l-0.301-0.298l-0.302-0.3l-0.297-0.298v-0.298c-0.603-0.598-0.603-1.196,0-1.794c0.599-0.598,1.498-0.3,1.799,0.298h0.302   l0.301,0.3l0.297,0.298l0.302,0.3l0.301,0.298v0.598L313.925,143.516z M306.72,135.146c0.599,0.598,0.599,1.495,0,2.093   s-1.502,0.598-1.799,0l-0.302-0.3l-0.301-0.298l-0.302-0.298l-0.297-0.3l-0.302-0.298l-0.301-0.3h-0.297   c-0.603-0.598-0.603-1.495,0-1.794c0.297-0.596,1.196-0.896,1.799-0.298l0.302,0.298l0.297,0.3l0.301,0.298l0.302,0.3l0.301,0.298   l0.297,0.3H306.72z M298.318,128.268c0.598,0.3,0.598,1.196,0.297,1.794c-0.599,0.598-1.498,0.896-2.101,0.298l0,0l-0.297-0.298   l-0.302-0.298h-0.603l-0.297-0.3l-0.301-0.298l-0.302-0.3c-0.599-0.298-0.599-1.196-0.301-1.794c0.301-0.596,1.2-0.896,1.803-0.298   h0.302l0.297,0.298l0.603,0.3l0.297,0.298l0.302,0.3l0.301,0.298H298.318z M288.711,122.588c0.904,0.298,1.201,1.194,0.603,1.792   c-0.301,0.598-0.899,0.898-1.803,0.598l0,0l-0.298-0.298l-0.301-0.3h-0.603l-0.297-0.298l-0.302-0.3h-0.598   c-0.603-0.298-0.904-1.194-0.603-1.792c0.301-0.598,1.2-0.898,1.799-0.598h0.302l0.602,0.298l0.298,0.3h0.603l0.301,0.298   L288.711,122.588L288.711,122.588z M278.808,118.103c0.603,0.298,0.899,1.196,0.899,1.794c-0.297,0.896-1.196,1.194-1.799,0.896   l0,0l-0.599-0.3h-0.301h-0.599l-0.302-0.298h-0.603v-0.298c-0.899,0-1.2-0.898-1.2-1.497c0.301-0.896,1.2-1.196,1.803-0.896h0.302   h0.599l0.301,0.298h0.599l0.301,0.3h0.302H278.808z M268.004,115.412c0.9,0.298,1.201,0.896,1.201,1.495   c0,0.896-0.899,1.494-1.502,1.196h-0.297h-0.603l-0.302-0.3h-0.599h-0.301h-0.599l0,0c-0.603-0.298-1.2-0.896-1.2-1.494   c0.301-0.896,0.899-1.495,1.502-1.197h0.297h0.301h0.599l0.302,0.3h0.603h0.297H268.004z" fill="#CCCCCC"/><path d="M387.753,360.288c4.8,2.394,8.101,7.475,8.101,13.156v90.297c0,8.37-6.603,14.948-14.703,14.948H230.791   c-4.205,0-7.804-1.492-10.506-4.186c2.1,0.896,4.201,1.497,6.603,1.497h150.36c8.104,0,15.004-6.578,15.004-14.952v-90.293   C392.251,366.866,390.452,362.981,387.753,360.288z" fill="#BDC6CB"/><path d="M226.887,356.104h150.36c8.104,0,15.004,6.578,15.004,14.652v90.293c0,8.374-6.899,14.952-15.004,14.952   h-150.36c-8.101,0-15.004-6.578-15.004-14.952v-90.293C211.883,362.682,218.787,356.104,226.887,356.104z" fill="#DDE8EE"/><path d="M216.083,471.216c-0.301,0-0.301-0.301-0.301-0.301h35.716c-4.201-1.192-7.502-5.381-7.502-9.866v-90.293   c0-4.786,3.301-8.675,7.502-10.167h-35.415l0,0l0,0l0,0l0,0l0,0l0,0l0,0l0,0l0,0l0,0h0.301l0,0l0,0l0,0v-0.301l0,0l0,0l0,0h38.117   h12h110.745c5.703,0,10.506,4.786,10.506,10.468v90.293c0,5.682-4.803,10.167-10.506,10.167H266.502h-12H216.083z" fill="#869292"/><path d="M258.401,365.67h114.344c5.702,0,10.205,4.485,10.205,9.867v80.43c0,5.682-4.503,10.167-10.205,10.167   H258.401c-5.703,0-10.205-4.485-10.205-10.167v-80.43C248.197,370.155,252.699,365.67,258.401,365.67z" fill="#DDE8EE"/><path d="M308.82,421.285c-0.599,0-0.899-0.3-1.201-0.6c-0.301-0.301-0.301-0.597-0.301-0.896   c0-0.601,0.301-0.896,1.2-1.196c0.603-0.3,1.804-0.597,2.703-0.896c1.201-0.3,2.101-0.6,3-0.6c1.201-0.297,1.804-0.597,2.401-0.597   c0-0.6,0-1.792,0-3.289c0-1.496,0.302-3.289,0.302-5.381c0.297-1.797,0.297-3.59,0.599-5.682c0.301-2.093,0.899-3.89,1.2-5.682   c0.603-1.793,1.201-2.989,1.804-4.186c0.599-1.196,1.498-1.496,2.397-1.496c0.603,0,1.201,0.3,1.803,1.196   c0.599,0.896,1.201,1.796,1.8,3.289c0.301,1.196,0.603,2.692,0.899,4.485c0.302,1.496,0.603,3.288,0.899,4.785   c0.302,1.492,0.302,2.688,0.302,3.885c0.301,1.496,0.301,2.393,0.301,2.693c0.599-0.301,1.201-0.301,2.101-0.601   c0.599-0.296,1.201-0.296,2.101-0.296c0.603,0,0.899,0,0.899,0.296c0.301,0.3,0.301,0.601,0.301,0.9   c0,0.296-0.301,0.596-0.598,0.896c-0.302,0.296-0.904,0.596-1.502,0.896c-0.603,0.301-1.201,0.301-1.8,0.597   c-0.603,0.3-0.903,0.3-1.2,0.3c0,1.196,0.297,2.989,0.598,4.785c0.302,2.093,0.603,4.186,0.9,6.278   c0.301,2.092,0.602,3.885,1.2,5.981c0.603,1.792,0.899,3.289,1.502,4.186l0,0c0.599,0.296,1.201,0.596,1.498,0.896   c0.603,0.301,0.904,0.896,0.904,1.497c0,0-0.302,0.296-0.603,0.596c0,0.3-0.302,0.601-0.9,0.601c-0.899,0-1.502-0.601-2.401-1.497   c-0.599-0.896-1.498-2.092-2.101-3.589c-0.598-1.792-0.899-3.289-1.502-5.081c-0.297-2.093-0.598-3.89-0.899-5.682   c-0.297-1.793-0.599-3.289-0.599-4.785c-0.301-1.493-0.301-2.689-0.301-3.289c-1.201,0.6-2.401,1.196-3.603,1.496   c-1.201,0.597-2.397,1.196-3.599,1.496c0,0.597,0,1.793,0,3.289c0.297,1.493,0.297,3.289,0.297,5.082c0,1.196,0,2.092-0.297,2.988   c0,1.196,0,1.797-0.301,2.693c0,0.896-0.302,1.492-0.302,1.792c-0.301,0.601-0.599,0.896-0.899,0.896   c-0.899,0-1.201-0.597-1.502-1.196c0-0.896-0.297-1.492-0.297-2.093c0-2.093,0.297-3.885,0.297-5.978s0.301-4.186,0.301-6.282   c-0.598,0.301-1.2,0.301-1.799,0.601c-0.603,0.3-1.502,0.3-2.101,0.596c-0.903,0.301-1.502,0.301-2.401,0.601   C309.72,420.985,309.121,421.285,308.82,421.285z M322.925,393.777c-0.599,0-0.899,0.597-1.498,2.389   c-0.301,1.497-0.603,3.59-0.899,5.682c-0.302,2.393-0.603,4.786-0.904,7.179c0,2.393-0.297,4.485-0.297,6.277   c1.201-0.596,2.397-0.896,3.599-1.496c0.899-0.597,2.101-1.196,3.301-1.492l-0.598-5.682c0-0.601,0-1.497,0-2.989   c-0.302-1.196-0.603-2.692-0.603-4.189c-0.298-1.492-0.599-2.988-0.899-3.885C323.824,394.374,323.226,393.777,322.925,393.777z" fill="#5F5F5F"/><path d="M255.101,370.455h5.703c0.598,0,1.2,0.301,1.2,1.196v5.978c0,0.896-0.603,1.196-1.2,1.196h-5.703   c-0.9,0-1.201-0.3-1.201-1.196v-5.978C253.899,370.756,254.201,370.455,255.101,370.455z" fill="#A5A8A9"/><path d="M255.101,380.322h5.703c0.598,0,1.2,0.596,1.2,1.196v6.277c0,0.601-0.603,1.196-1.2,1.196h-5.703   c-0.9,0-1.201-0.596-1.201-1.196v-6.277C253.899,380.918,254.201,380.322,255.101,380.322z" fill="#A5A8A9"/><path d="M255.101,390.188h5.703c0.598,0,1.2,0.597,1.2,1.196v6.278c0,0.596-0.603,1.196-1.2,1.196h-5.703   c-0.9,0-1.201-0.601-1.201-1.196v-6.278C253.899,390.785,254.201,390.188,255.101,390.188z" fill="#A5A8A9"/><path d="M255.101,400.056h5.703c0.598,0,1.2,0.596,1.2,1.196v6.277c0,0.601-0.603,1.196-1.2,1.196h-5.703   c-0.9,0-1.201-0.596-1.201-1.196v-6.277C253.899,400.651,254.201,400.056,255.101,400.056z" fill="#A5A8A9"/><path d="M255.101,410.223h5.703c0.598,0,1.2,0.296,1.2,0.896v6.277c0,0.6-0.603,1.196-1.2,1.196h-5.703   c-0.9,0-1.201-0.597-1.201-1.196v-6.277C253.899,410.519,254.201,410.223,255.101,410.223z" fill="#A5A8A9"/><path d="M255.101,420.089h5.703c0.598,0,1.2,0.597,1.2,1.196v5.978c0,0.896-0.603,1.196-1.2,1.196h-5.703   c-0.9,0-1.201-0.3-1.201-1.196v-5.978C253.899,420.686,254.201,420.089,255.101,420.089z" fill="#A5A8A9"/><path d="M255.101,429.956h5.703c0.598,0,1.2,0.596,1.2,1.196v6.277c0,0.597-0.603,1.196-1.2,1.196h-5.703   c-0.9,0-1.201-0.6-1.201-1.196v-6.277C253.899,430.552,254.201,429.956,255.101,429.956z" fill="#A5A8A9"/><path d="M255.101,439.822h5.703c0.598,0,1.2,0.597,1.2,1.196v6.278c0,0.596-0.603,1.196-1.2,1.196h-5.703   c-0.9,0-1.201-0.601-1.201-1.196v-6.278C253.899,440.419,254.201,439.822,255.101,439.822z" fill="#A5A8A9"/><path d="M266.502,370.455h6.004c0.599,0,1.201,0.301,1.201,1.196v5.978c0,0.896-0.603,1.196-1.201,1.196h-6.004   c-0.599,0-1.196-0.3-1.196-1.196v-5.978C265.306,370.756,265.903,370.455,266.502,370.455z" fill="#A5A8A9"/><path d="M266.502,380.322h6.004c0.599,0,1.201,0.596,1.201,1.196v6.277c0,0.601-0.603,1.196-1.201,1.196h-6.004   c-0.599,0-1.196-0.596-1.196-1.196v-6.277C265.306,380.918,265.903,380.322,266.502,380.322z" fill="#A5A8A9"/><path d="M266.502,390.188h6.004c0.599,0,1.201,0.597,1.201,1.196v6.278c0,0.596-0.603,1.196-1.201,1.196h-6.004   c-0.599,0-1.196-0.601-1.196-1.196v-6.278C265.306,390.785,265.903,390.188,266.502,390.188z" fill="#A5A8A9"/><path d="M266.502,400.056h6.004c0.599,0,1.201,0.596,1.201,1.196v6.277c0,0.601-0.603,1.196-1.201,1.196h-6.004   c-0.599,0-1.196-0.596-1.196-1.196v-6.277C265.306,400.651,265.903,400.056,266.502,400.056z" fill="#A5A8A9"/><path d="M266.502,410.223h6.004c0.599,0,1.201,0.296,1.201,0.896v6.277c0,0.6-0.603,1.196-1.201,1.196h-6.004   c-0.599,0-1.196-0.597-1.196-1.196v-6.277C265.306,410.519,265.903,410.223,266.502,410.223z" fill="#A5A8A9"/><path d="M266.502,420.089h6.004c0.599,0,1.201,0.597,1.201,1.196v5.978c0,0.896-0.603,1.196-1.201,1.196h-6.004   c-0.599,0-1.196-0.3-1.196-1.196v-5.978C265.306,420.686,265.903,420.089,266.502,420.089z" fill="#A5A8A9"/><path d="M266.502,429.956h6.004c0.599,0,1.201,0.596,1.201,1.196v6.277c0,0.597-0.603,1.196-1.201,1.196h-6.004   c-0.599,0-1.196-0.6-1.196-1.196v-6.277C265.306,430.552,265.903,429.956,266.502,429.956z" fill="#A5A8A9"/><path d="M266.502,439.822h6.004c0.599,0,1.201,0.597,1.201,1.196v6.278c0,0.596-0.603,1.196-1.201,1.196h-6.004   c-0.599,0-1.196-0.601-1.196-1.196v-6.278C265.306,440.419,265.903,439.822,266.502,439.822z" fill="#A5A8A9"/><path d="M259.301,449.985h5.703c0.599,0,1.201,0.601,1.201,1.196v6.282c0,0.596-0.603,1.196-1.201,1.196h-5.703   c-0.598,0-1.2-0.601-1.2-1.196v-6.282C258.101,450.586,258.703,449.985,259.301,449.985z" fill="#A5A8A9"/><path d="M263.201,453.574h6.004c0.599,0,1.201,0.601,1.201,1.196v6.278c0,0.6-0.603,1.196-1.201,1.196h-6.004   c-0.599,0-1.197-0.597-1.197-1.196v-6.278C262.004,454.175,262.603,453.574,263.201,453.574z" fill="#A5A8A9"/><path d="M228.092,408.13c4.201,0,7.799,3.289,7.799,7.771c0,4.188-3.598,7.773-7.799,7.773   c-4.205,0-7.807-3.585-7.807-7.773C220.285,411.419,223.887,408.13,228.092,408.13z" fill="#657280"/><path d="M228.092,411.419c2.398,0,4.201,2.093,4.201,4.481c0,2.393-1.803,4.188-4.201,4.188   c-2.401,0-4.502-1.796-4.502-4.188C223.59,413.512,225.69,411.419,228.092,411.419z" fill="#5E6976"/><rect fill="#33CC99" height="20.054" width="13.945" x="394.954" y="259.824"/><path d="M102.64,320.521l105.343-29.301c6.301-1.792,12.904,1.793,14.703,8.371l44.118,159.664   c1.502,6.278-2.101,13.156-8.402,14.948l-105.339,29.601c-6.305,1.796-13.209-2.093-15.008-8.37l-43.82-159.961   C92.435,329.191,96.335,322.318,102.64,320.521z" fill="#B88A2E"/><path d="M102.64,320.521l105.343-29.301c1.498-0.6,3-0.6,4.502-0.6c2.996,1.496,5.699,4.189,6.603,7.774   l44.113,159.964c1.502,6.278-2.101,13.156-8.402,14.948l-105.343,29.601c-1.498,0.3-2.996,0.3-4.502,0.3   c-3.297-1.496-5.699-4.185-6.9-7.773l-43.82-159.961C92.435,329.191,96.335,322.318,102.64,320.521z" fill="#CC9933"/><path d="M135.954,311.255l38.715-10.768c0.301,1.797,1.498,11.363-0.301,11.964l-32.113,8.967   C140.452,322.018,136.552,313.047,135.954,311.255z" fill="#B88A2E"/><polygon fill="#CFCFCF" points="101.138,333.081 209.18,296.007 264.104,459.256 156.059,496.33  "/><polygon fill="#E6E6E6" points="110.443,323.51 222.385,300.788 256,469.723 144.059,492.445  "/><polygon fill="#CFCFCF" points="169.565,472.111 173.766,474.805 165.364,484.671  "/><path d="M169.565,472.111l4.201,2.693l-0.896,0.896c-0.301,0.301-0.904,0.601-1.205,0.601   c-0.599,0.296-0.301-1.496-0.599-2.097c-0.301-0.296-1.502,1.196-1.803,1.196c-0.297,0-0.297-1.196-0.297-2.393L169.565,472.111z" fill="#CFCFCF"/><polygon fill="#CFCFCF" points="167.163,482.278 165.364,484.671 166.268,481.683  "/><path d="M169.565,472.111l50.418-90.297c2.703-4.481,6.904-2.093,4.502,2.692l-50.72,90.298   c-0.896,0-1.799,1.196-2.1,0.896c-0.301,0,0.301-1.792-0.301-2.092c-0.297-0.301-1.799,1.496-1.799,0.896   C169.565,474.204,169.565,473.008,169.565,472.111z" fill="#CFCFCF"/><path d="M171.666,475.104c0-0.601,0-1.196-0.301-1.496c-0.297,0-0.896,0.3-1.197,0.596l48.017-85.512l1.502,0.896   L171.666,475.104z" fill="#CFCFCF"/><path d="M169.565,472.111l47.121-84.315l1.498,0.896l-48.017,85.512c-0.301,0.3-0.603,0.601-0.603,0.3   C169.565,474.204,169.565,473.008,169.565,472.111z" fill="#CFCFCF"/><polygon fill="#CFCFCF" points="216.686,387.796 218.184,385.403 222.385,387.796 221.188,390.489  "/><path d="M218.184,385.403l1.799-3.589c2.703-4.481,6.904-2.093,4.502,2.692l-2.101,3.289L218.184,385.403z" fill="#CFCFCF"/><path d="M136.854,302.284l6.603-1.797c-0.301,0-0.301-0.296-0.301-0.596l-0.899-3.289   c-0.599-1.792,0.598-3.589,2.401-4.185l12.904-3.59c0.301,0,0.301,0,0.301,0c0.9,0.301,1.502,1.196,1.803,2.093l0.896,3.289   c0,0.3,0.301,1.196,0.301,1.496c2.703-0.896,5.406-1.496,8.402-2.393l0,0c0.904,0.301,1.803,1.196,2.101,2.093l0.903,3.289   c0.301,1.792,1.498,11.959-0.301,12.26l-31.213,8.97c-1.799-2.092-4.799-8.374-5.101-10.166l-0.9-3.289   C134.151,304.677,135.054,302.881,136.854,302.284z" fill="#B8B8B8"/><path d="M142.557,300.788l0.899-0.301c-0.301,0-0.301-0.296-0.301-0.596l-0.899-3.289   c-0.599-1.496,0.301-2.988,1.502-3.885l0,0l13.205-3.589h0.301c0.896,0.3,1.498,1.196,1.799,2.092l0.9,3.289   c0,0.301,0.301,1.196,0.301,1.497c2.699-0.9,5.401-1.497,8.401-2.393l0,0c0.9,0.296,1.804,1.196,1.804,2.092l0.896,3.289   c0.602,1.793,1.803,10.764,0.301,12.26l-30.912,8.67c-1.799-2.092-4.799-8.374-5.101-10.166l-0.9-3.289   c-0.602-1.497,0.301-2.989,1.498-3.886l0,0L142.557,300.788L142.557,300.788z" fill="#CCCCCC"/><path d="M142.255,419.789c-0.599,0.3-1.502,0.3-1.803-0.3c-0.599-0.301-1.197-0.896-1.498-1.493   c0-0.6,0.603-1.196,1.799-2.393c1.205-0.896,2.703-1.796,4.201-2.692c1.803-1.196,3.305-2.093,5.104-2.989   c1.498-0.896,2.703-1.496,3.301-1.792c-0.297-1.196-0.899-2.993-1.502-5.682c-0.599-2.692-1.197-5.682-1.799-8.971   s-1.201-6.878-1.498-10.467c-0.603-3.585-0.904-6.874-0.904-9.866c0-3.289,0.301-5.678,0.904-8.07   c0.599-2.093,1.799-3.289,3.297-3.89c1.205-0.3,2.703,0,3.904,1.196c1.502,1.196,3,2.693,4.201,4.785   c1.502,2.093,2.699,4.485,4.201,7.175c1.201,2.692,2.402,5.085,3.301,7.773c1.201,2.393,2.101,4.786,2.703,6.878   c0.598,2.093,1.197,3.589,1.498,4.485c1.205-0.896,2.1-1.796,3.305-2.393c0.896-0.596,2.101-1.196,3.297-1.496   c0.903-0.296,1.502-0.296,1.803,0c0.598,0.3,0.899,0.9,0.899,1.496c0.301,0.597,0,1.196-0.603,2.093   c-0.598,0.6-1.197,1.196-2.1,1.797c-0.9,0.896-1.799,1.492-2.699,2.092c-0.899,0.297-1.502,0.896-1.803,1.192   c0.603,1.797,1.803,4.485,3.004,7.774c1.498,3.289,3,6.578,4.502,10.167c1.498,3.289,3.297,6.578,4.803,9.57   c1.799,2.989,3.297,5.082,4.799,6.278l0,0c0.899,0.3,1.803,0.596,2.699,0.896c1.205,0.301,1.803,0.896,2.101,2.093   c0,0.301,0,0.896-0.297,1.497c-0.301,0.896-0.899,1.196-1.201,1.196c-1.799,0.596-3.301,0.296-5.104-1.196   c-1.799-1.196-3.297-2.993-5.097-5.382c-1.803-2.393-3.305-5.086-4.803-8.074c-1.502-2.693-3.004-5.682-4.201-8.671   c-1.502-2.988-2.703-5.682-3.606-8.074c-0.896-2.393-1.498-4.185-2.101-5.381c-1.498,1.496-3.297,2.988-5.101,4.485   c-1.799,1.196-3.603,2.692-5.401,4.185c0.301,0.896,0.903,2.693,1.799,5.382c0.904,2.692,1.803,5.682,2.402,8.67   c0.603,1.797,0.904,3.589,1.502,5.086c0.297,1.792,0.599,3.289,0.599,4.781c0,1.196,0,2.393,0,3.289   c-0.301,0.9-0.599,1.496-1.197,1.496c-1.205,0.601-2.402,0-2.703-1.196c-0.603-1.196-1.201-2.093-1.498-2.989   c-0.903-3.589-1.803-7.178-2.401-10.763c-0.904-3.289-1.803-6.878-2.703-10.467c-0.603,0.601-1.498,0.896-2.703,1.797   c-0.9,0.596-2.101,1.192-3.297,2.092c-1.205,0.597-2.401,1.196-3.606,1.793C144.059,419.188,143.155,419.489,142.255,419.789z    M153.36,366.271c-0.599,0.296-1.201,1.792-1.201,4.781c0,2.992,0.301,6.577,0.903,10.467c0.599,4.185,1.197,8.07,2.101,12.556   c0.896,4.185,1.498,7.773,2.397,10.767c1.803-1.496,3.603-2.692,5.101-4.189c1.803-1.492,3.305-2.988,5.104-4.185l-3.603-9.566   c-0.297-0.896-0.899-2.394-1.799-4.786c-0.899-2.093-1.803-4.485-3-6.878c-0.903-2.389-2.1-4.48-3.305-6.577   C155.163,366.866,154.259,366.271,153.36,366.271z M177.669,362.682c-0.301-1.797,0-2.693,1.502-2.989   c1.197-0.3,2.101,0.296,3.297,2.093c0.904,1.792,1.803,4.185,2.703,6.577c0.904,2.394,1.799,4.782,2.402,7.175   s0.899,3.889,1.201,4.484c0-1.496-0.301-3.589-0.301-5.978c0-2.393,0.301-4.785,0.9-7.178c0.603-2.393,1.205-4.485,2.401-6.277   c1.201-1.797,2.703-2.989,4.803-3.589c2.402-0.597,4.201-0.301,5.699,1.496c1.205,1.492,2.104,3.289,2.703,5.382   c0.603,2.988,1.201,5.978,1.502,8.97c0.297,2.989,0.297,6.278,0.297,9.267c2.402-0.596,4.803-1.196,7.808-1.492   c2.699,0,5.1,0,7.799,0.597c2.402,0.596,4.502,1.496,6.603,2.988c1.804,1.797,3.306,3.89,4.201,6.878   c0.603,2.393,0.603,5.081-0.297,8.074c-0.899,2.989-2.1,5.682-3.904,8.37c-1.799,2.393-3.899,4.786-6.301,6.878   c-2.401,1.793-4.803,2.989-7.205,3.886c-0.599,0-1.498,0.3-2.699,0.3c-1.201,0-2.397,0-3.602-0.3c-0.9,0-2.101-0.297-3-0.896   c-0.899-0.597-1.502-1.196-1.799-2.093c-0.301-1.496,0-2.692,1.799-2.988h1.502c2.401,1.196,4.803,1.492,7.502,0.896   c1.803-0.6,3.603-1.496,5.402-2.988c2.1-1.497,3.603-3.289,4.803-5.382c1.197-1.797,2.101-3.889,2.703-5.981   c0.599-2.393,0.599-4.485,0-6.278c-0.602-2.092-1.506-3.589-3.004-4.484c-1.799-1.196-3.301-1.797-5.402-2.093   c-1.803-0.301-3.904-0.301-6.004-0.301c-2.101,0.301-3.9,0.597-5.402,0.896l-1.502,0.601c0,0.596-0.297,1.492-0.297,2.688   c-0.301,0.896-0.301,2.093-0.598,3.289c-0.301,0.896-0.904,2.093-1.205,2.988c-0.598,0.9-1.197,1.197-1.799,1.497   c-1.201,0.3-2.101,0-3-0.896c-0.899-0.896-1.502-1.792-1.502-2.692c-0.598-1.793-0.301-3.585,0.301-5.082   c0.9-1.792,2.101-3.289,3.301-4.185c0.297-3.89,0.297-7.774,0-11.663c-0.598-3.886-1.803-7.475-3.603-11.063   c-1.799,0.601-3,1.797-3.598,4.189c-0.904,2.092-1.205,4.485-1.502,7.474c0,2.989,0.297,5.978,0.598,9.267s0.904,6.578,1.201,9.867   c0.599,2.992,1.201,5.682,1.803,8.374c0.599,2.393,1.197,4.485,1.498,5.682c0,0.596,0.603,1.792,0.904,2.988   c0.598,1.197,1.197,2.689,1.498,4.186s0.603,3.289,0.603,4.785c0,1.492-0.603,2.393-2.101,2.689c-0.301,0-0.904,0-1.205-0.297   c-0.598-0.3-0.896-0.6-0.896-1.196c-3.606-9.57-6.904-19.137-9.908-28.704C184.272,381.814,181.272,372.248,177.669,362.682z" fill="#A9ABAE"/><path d="M192.975,433.541c0.598,0.3,0.899,0.6,1.201,1.196l-1.799,3.589c-0.603,0-1.201,0-2.101,0L192.975,433.541z    M203.18,415.604l1.498-2.992h1.803c0,0,0,0,0.297,0l-2.699,4.485C203.481,416.8,203.18,416.2,203.18,415.604z" fill="#8A0000"/><path d="M193.276,432.944h0.297c0.603,0.301,0.904,0.301,1.205,0.597l-2.402,4.485   c-0.603,0-1.201-0.296-1.502-0.597L193.276,432.944z M199.878,421.285l1.502-2.692v0.3   C201.381,420.089,200.778,420.985,199.878,421.285z M206.778,412.315l-2.101,3.885c0-0.3-0.297-0.597-0.297-0.896   c-0.301-1.496,0-2.692,1.799-2.988H206.778z" fill="#B82E00"/><path d="M191.473,432.944c0.301,0,0.603,0.301,0.904,0.301s0.301,0.296,0.599,0.296l-2.699,4.785   c-0.301-0.3-0.903-0.596-1.502-0.896L191.473,432.944z M197.477,421.882l2.401-4.186c0,0.3,0,0.896,0,1.492   c0,1.196-0.598,2.394-1.803,2.693C197.778,421.882,197.778,421.882,197.477,421.882z M204.678,412.611l-1.498,2.992h-0.301   C202.578,413.808,203.18,412.911,204.678,412.611L204.678,412.611z" fill="#8A0000"/><path d="M191.774,432.349c0.603,0.296,0.904,0.296,1.502,0.596l-2.402,4.485c-0.599,0-1.201-0.3-1.502-0.6   L191.774,432.349z M197.778,421.285l3.301-5.682c0.301,0.896,0.301,2.093,0.301,2.989l-1.502,2.692   c-0.301,0-0.301,0.297-0.598,0.297c-0.301,0-0.904,0-1.205-0.297H197.778z" fill="#B82E00"/><path d="M217.586,386.3l0.598-0.896l2.703,1.497c-0.904-0.301-1.799-0.601-2.402-0.601   C218.184,386.3,217.883,386.3,217.586,386.3z" fill="#8A0000"/><path d="M217.883,385.703l0.301-0.3l0.904,0.601C218.485,386.004,218.184,385.703,217.883,385.703z" fill="#B82E00"/><polygon fill="#FFCC99" points="168.067,471.216 172.268,473.908 163.866,483.775  "/><path d="M168.067,471.216l4.201,2.692l-0.602,0.896c-0.599,0.3-1.197,0.596-1.498,0.596   c-0.603,0.3-0.301-1.792-0.301-2.093c-0.301-0.3-1.799,1.196-2.101,1.196s-0.301-1.496,0-2.393L168.067,471.216z" fill="#FFCC99"/><polygon fill="#4D4D4D" points="165.966,481.382 163.866,483.775 164.762,480.782  "/><path d="M168.067,471.216l50.418-90.298c2.703-4.485,7.205-2.093,4.502,2.693l-50.72,90.297   c-0.903,0-1.799,1.196-2.1,0.896c0,0,0.301-1.797,0-2.093c-0.603-0.3-2.101,1.492-2.101,0.896   C168.067,473.008,168.067,472.111,168.067,471.216z" fill="#E6B800"/><path d="M170.167,474.204c0-0.596,0-1.196,0-1.492c-0.301-0.3-0.904,0.296-1.502,0.596l48.021-85.512l1.498,0.896   L170.167,474.204z" fill="#FFCC00"/><path d="M168.067,471.216l47.117-84.315l1.502,0.896l-48.021,85.512c-0.297,0.301-0.598,0.601-0.598,0.301   C168.067,473.008,168.067,472.111,168.067,471.216z" fill="#E6B800"/><polygon fill="#CFA600" points="215.184,386.9 216.686,384.507 221.188,386.9 219.686,389.589  "/><path d="M216.686,384.507l1.799-3.589c2.703-4.781,7.205-2.093,4.502,2.693l-1.799,3.289L216.686,384.507z" fill="#CC3300"/><path d="M150.36,292.718c1.197-0.3,2.101,0.596,2.401,1.492c0.599,1.196-0.301,2.393-1.205,2.692   c-1.197,0.297-2.397-0.3-2.699-1.496C148.561,294.21,149.159,293.014,150.36,292.718z" fill="#959595"/><path d="M151.557,293.014c0.603,0,1.205,0.601,1.205,1.196c0.599,1.196-0.301,2.393-1.205,2.692   c-0.297,0-0.599,0-0.896,0c-0.603-0.3-0.904-0.6-1.205-1.196c-0.297-1.196,0.301-2.393,1.502-2.692   C151.259,293.014,151.557,293.014,151.557,293.014z" fill="#A6A6A6"/><path d="M172.268,298.695c0,0.601,0,1.196,0.301,2.393l2.101-0.601l33.314-9.267c1.498-0.6,3-0.6,4.502-0.6   c4.799,0.6,9.004,3.889,10.201,8.971l44.118,159.664c1.502,6.278-2.101,13.156-8.402,14.948l-105.339,29.601   c-2.703,0.6-5.707,0.3-8.108-0.597c-3.297-1.496-5.699-4.185-6.9-7.773l-43.82-159.961c-1.799-6.282,2.101-13.155,8.406-14.952   l33.314-9.267l0,0c-0.301-0.601-0.301-1.196-0.301-1.496l-0.9-3.289c-0.602-1.497,0.301-2.989,1.498-3.886   c0.301,0,0.603,0,0.603-0.3l5.703-1.496l0.899-0.301c-0.301,0-0.301-0.296-0.301-0.596l-0.899-3.289   c-0.599-1.496,0.301-2.988,1.502-3.885c0.301,0,0.598-0.3,0.899-0.3l12.904-3.59h0.301c0.9,0.301,1.502,1.196,1.803,2.093   l0.896,3.289c0,0.3,0.301,1.196,0.301,1.496l8.402-2.393l0,0c0.904,0.301,1.803,1.196,2.101,2.093L172.268,298.695z" fill="none"/><path d="M434.268,62.788H77.732c-7.807,0-14.108,6.28-14.108,14.054v231.125c0,7.774,6.301,14.052,14.108,14.052   h11.105c-2.703,4.485-3.603,10.167-2.101,15.549l43.816,159.96c1.799,5.682,5.699,10.468,11.104,12.856   c4.201,1.796,9.004,2.096,13.506,0.899l87.933-24.818H381.15c12.302,0,22.507-10.163,22.507-22.723v-90.297   c0-8.074-4.502-15.549-11.406-19.434c-4.201-3.889-9.603-5.682-15.004-5.682h-21.31c-11.402-13.756-39.013-20.334-57.322-23.322   v-2.989h135.652c7.804,0,14.109-6.277,14.109-14.052V76.841C448.377,69.067,442.071,62.788,434.268,62.788z M440.573,307.966   c0,3.289-3.004,6.277-6.306,6.277H290.812v17.642c31.515,3.885,54.925,13.155,60.925,24.219h25.511   c3.903,0,7.803,1.496,10.506,4.185c4.8,2.394,8.101,7.475,8.101,13.156v90.297c0,8.37-6.603,14.948-14.703,14.948H242.192   l-89.13,25.115c-2.703,0.6-5.707,0.3-8.108-0.597c-3.297-1.496-5.699-4.185-6.9-7.773l-43.82-159.961   c-1.799-6.282,2.101-13.155,8.406-14.952l22.808-6.278H77.732c-3.305,0-6.301-2.988-6.301-6.277V76.841   c0-3.589,2.996-6.28,6.301-6.28h356.536c3.302,0,6.306,2.691,6.306,6.28V307.966z" fill="#4E5A62"/></g></svg>