<?xml version="1.0" ?><svg enable-background="new 0 0 128 128" id="Слой_1" version="1.1" viewBox="0 0 128 128" xml:space="preserve" xmlns="http://www.w3.org/2000/svg" xmlns:xlink="http://www.w3.org/1999/xlink"><g><g><path d="M91.109375,66.0400391c-0.5292969,0-1.0498047-0.2104492-1.4199219-0.5800781    c-0.3701172-0.3701172-0.5800781-0.8901367-0.5800781-1.4199219c0-0.5200195,0.2099609-1.0400391,0.5800781-1.4101562    c0.7402344-0.7402344,2.0800781-0.7402344,2.8300781,0C92.8896484,63,93.109375,63.5200195,93.109375,64.0400391    c0,0.5297852-0.2197266,1.0498047-0.5898438,1.4199219C92.1494141,65.8295898,91.6298828,66.0400391,91.109375,66.0400391z" fill="#3399CC"/></g><g><path d="M85.109375,66.0400391c-0.5292969,0-1.0498047-0.2104492-1.4199219-0.5800781    c-0.3701172-0.3701172-0.5800781-0.8901367-0.5800781-1.4199219c0-0.5200195,0.2099609-1.0400391,0.5800781-1.4101562    c0.75-0.7402344,2.0800781-0.75,2.8300781,0C86.8896484,63,87.109375,63.5200195,87.109375,64.0400391    c0,0.5297852-0.2197266,1.0498047-0.5898438,1.4199219C86.1494141,65.8295898,85.6298828,66.0400391,85.109375,66.0400391z" fill="#3399CC"/></g><g><path d="M79.109375,66.0400391c-0.5292969,0-1.0498047-0.2104492-1.4199219-0.5800781    c-0.3701172-0.3701172-0.5800781-0.8901367-0.5800781-1.4199219c0-0.5200195,0.2099609-1.0400391,0.5800781-1.4101562    c0.75-0.7402344,2.0800781-0.75,2.8300781,0C80.8896484,63,81.109375,63.5200195,81.109375,64.0400391    c0,0.5297852-0.2197266,1.0498047-0.5898438,1.4199219C80.1494141,65.8295898,79.6396484,66.0400391,79.109375,66.0400391z" fill="#3399CC"/></g><g><path d="M61,84c-1.1044922,0-2-0.8955078-2-2V40c0-1.1044922,0.8955078-2,2-2s2,0.8955078,2,2v42    C63,83.1044922,62.1044922,84,61,84z" fill="#3399CC"/></g><g><path d="M73,66H37c-1.1044922,0-2-0.8955078-2-2s0.8955078-2,2-2h36c1.1044922,0,2,0.8955078,2,2    S74.1044922,66,73,66z" fill="#3399CC"/></g><g><path d="M61,90.9599609c-0.5302734,0-1.0498047-0.2202148-1.4199219-0.590332    C59.2099609,90,59,89.4799805,59,88.9599609c0-0.5302734,0.2099609-1.0400391,0.5800781-1.4199219    c0.75-0.7402344,2.0898438-0.75,2.8300781,0C62.7900391,87.9199219,63,88.4296875,63,88.9599609    c0,0.5200195-0.2099609,1.0297852-0.5898438,1.409668C62.0400391,90.7397461,61.5195312,90.9599609,61,90.9599609z" fill="#3399CC"/></g><g><path d="M61,96.9599609c-0.5302734,0-1.0498047-0.2202148-1.4199219-0.590332    C59.2099609,96,59,95.4799805,59,94.9599609c0-0.5302734,0.2099609-1.0400391,0.5800781-1.4199219    c0.75-0.7402344,2.0898438-0.75,2.8300781,0C62.7900391,93.9199219,63,94.4296875,63,94.9599609    c0,0.5200195-0.2099609,1.0297852-0.5898438,1.409668C62.0400391,96.7397461,61.5195312,96.9599609,61,96.9599609z" fill="#3399CC"/></g></g></svg>