<?xml version="1.0" ?><svg enable-background="new 0 0 500 500" id="Layer_1" version="1.1" viewBox="0 0 500 500" xml:space="preserve" xmlns="http://www.w3.org/2000/svg" xmlns:xlink="http://www.w3.org/1999/xlink"><g><path d="M307.747,430.261H127.394h0c27.085-3.315,47.44-26.315,47.44-53.601v-52.988h85.473v52.988   C260.307,403.946,280.663,426.946,307.747,430.261L307.747,430.261z" fill="#E0DEDE"/><path d="M383.492,340.766H38.576c-12.493,0-22.621-10.128-22.621-22.621V79.818   c0-12.493,10.128-22.621,22.621-22.621h344.916c12.493,0,22.621,10.128,22.621,22.621v238.326   C406.114,330.638,395.986,340.766,383.492,340.766z" fill="#E8E6E6"/><path d="M369.287,442.328H60.826c-3.123,0-5.654-2.531-5.654-5.654v-0.759c0-3.123,2.531-5.654,5.654-5.654h308.461   c3.123,0,5.654,2.531,5.654,5.654v0.759C374.941,439.796,372.41,442.328,369.287,442.328z" fill="#E8E6E6"/><path d="M16,80.726V295h391V80.726c0-0.705-0.908-1.726-0.944-2.726H16.012C15.977,79,16,80.021,16,80.726z" fill="#4384EC"/><path d="M16,80.726v213.992L406.562,80.678c0-0.705-0.47-1.678-0.505-2.678H16.012C15.977,79,16,80.021,16,80.726z" fill="#2666CE"/><rect fill="#D3CDCD" height="17.428" width="85.473" x="174.834" y="340.766"/><path d="M407,295v-72H281.26c-6.305,0-11.26,5.215-11.26,11.52V295H407z" fill="#2666CE"/><path d="M270,295v46h111.975C395.306,341,407,329.958,407,316.626V295H270z" fill="#D3CDCD"/><path d="M287,423.066c-7-3.959-13-9.298-17-15.594V430h17V423.066z" fill="#D3CDCD"/><rect fill="#E0DEDE" height="12.088" width="22.322" x="269.974" y="430.24"/><g><path d="M426.915,442.328H291.578c-5.909,0-10.699-4.79-10.699-10.699V233.802c0-5.909,4.79-10.699,10.699-10.699    h135.337c5.909,0,10.699,4.79,10.699,10.699v197.827C437.614,437.538,432.824,442.328,426.915,442.328z" fill="#D3CDCD"/><rect fill="#4384EC" height="170.122" width="156.735" x="280.879" y="241.977"/><polygon fill="#2666CE" points="280.879,412.099 280.879,241.977 437.614,241.977   "/><path d="M366.762,430.261h-15.03c-1.944,0-3.521-1.576-3.521-3.521v-0.473c0-1.944,1.576-3.521,3.521-3.521h15.03    c1.944,0,3.521,1.576,3.521,3.521v0.473C370.282,428.685,368.706,430.261,366.762,430.261z" fill="#E8E6E6"/><path d="M406.619,412.427v-73.808c0-6.305,5.112-11.417,11.417-11.417h39.158c6.305,0,11.417,5.112,11.417,11.417    v73.808H406.619z" fill="#1D5EBC"/><path d="M407,430.911c0,6.305,4.73,11.089,11.036,11.089h39.157c3.822,0,6.807-1.558,8.807-4.442V412h-59V430.911z    " fill="#C4BCBC"/><g><path d="M468.076,442.328h-40.593c-5.909,0-10.699-4.79-10.699-10.699v-93.728c0-5.909,4.79-10.699,10.699-10.699     h40.593c5.909,0,10.699,4.79,10.699,10.699v93.728C478.775,437.538,473.985,442.328,468.076,442.328z" fill="#E8E6E6"/><rect fill="#4384EC" height="89.511" width="61.992" x="416.783" y="337.114"/><polygon fill="#2666CE" points="416.783,426.625 416.783,337.114 478.775,337.114    "/><path d="M450.678,437.775h-5.797c-1.944,0-3.521-1.576-3.521-3.521v-0.473c0-1.944,1.576-3.521,3.521-3.521h5.797     c1.944,0,3.521,1.576,3.521,3.521v0.473C454.198,436.199,452.622,437.775,450.678,437.775z" fill="#FFFFFF"/></g></g></g></svg>